<svg
					xmlns="http://www.w3.org/2000/svg"
					viewBox="0 0 650.969 713.316"
					fill="url(#grad1)"
				>
					<defs>
						<linearGradient id="grad1" x1="0%" y1="0%" x2="100%" y2="0%">
							<stop offset="0%" style="stop-color: #ffa600; stop-opacity: 1" />
							<stop offset="50%" style="stop-color: #d97904; stop-opacity: 1" />
							<stop
								offset="100%"
								style="stop-color: #c26c03; stop-opacity: 1"
							/>
						</linearGradient>
					</defs>
					<g>
						<path
							d="M404.321,690.377c-4.307,0.621-8.723,0.832-12.898,1.943
						c-12.664,3.367-25.203,7.195-37.854,10.613c-5.539,1.496-11.193,2.631-16.855,3.576c-7.912,1.322-12.43-2.113-13.729-11.111
						c-0.281-1.941-0.09-4,0.18-5.963c0.471-3.414,0.064-4.541-3.014-6.154c-3.985-2.09-8.323-2.781-12.759-2.891
						c-10.904-0.268-21.195,2.613-31.338,6.219c-14.252,5.066-28.629,9.738-43.699,11.666c-7.938,1.016-15.957,1.406-23.908-0.037
						c-5.469-0.994-7.896-3.428-8.191-9.002c-0.168-3.174,0.529-6.49,1.383-9.592c0.965-3.502,0.34-5.686-3.008-7.316
						c-10.348-5.041-20.67-10.141-31.064-15.09c-15.453-7.357-29.375-16.875-41.43-29.059c-9.729-9.832-16.541-21.361-19.521-34.922
						c-2.224-10.115-7.653-17.311-16.922-22.211c-18.995-10.043-34.573-24.098-45.167-42.871C38.936,518.27,34.541,507.614,30.36,497
						c-7.614-19.332-14.714-38.867-21.938-58.35C3.803,426.196,2.664,413.114,1.934,400c-0.657-11.818-1.246-23.648-1.527-35.48
						c-0.285-11.986-0.713-24.014-0.072-35.971c0.85-15.873,4.928-31.236,9.449-46.428c3.945-13.25,7.947-26.486,12.213-39.637
						c1.471-4.531,3.77-8.801,5.769-13.154c2.834-6.172,5.774-12.295,8.61-18.465c5.596-12.176,13.211-23.037,21.992-33.049
						c9.965-11.361,19.658-23.059,30.532-33.502c21.846-20.984,47.472-36.389,75.146-48.623c29.932-13.234,61.133-22.377,93.154-28.361
						c19.678-3.676,39.748-5.482,59.715-7.321c12.124-1.116,24.265,0.925,36.282,2.815c8.289,1.307,16.537,2.871,24.793,4.381
						c3.266,0.6,5.635,0.076,8.082-2.793C400.882,47.05,413.327,28.13,424.19,8.116c0.912-1.681,1.852-3.383,3.031-4.876
						c2.506-3.171,5.645-3.57,8.801-1.074c1.93,1.527,3.611,3.366,5.555,5.208c1.125-1.407,2.303-2.991,3.594-4.478
						c2.592-2.986,4.826-3.527,8.563-2.245c4.941,1.695,8.221,4.974,9.986,9.927c3.012,8.457,4.025,17.253,4.701,26.118
						c0.611,8.051,1.051,16.119,1.826,24.154c0.834,8.643,4.842,15.771,11.045,21.773c18.621,18.01,37.301,35.949,57.236,52.527
						c7.893,6.563,14.641,14.096,18.578,23.771c2.869,7.053,3.801,14.518,4.359,22.025c0.318,4.305,0.623,8.646,0.422,12.945
						c-0.85,18.154,2.654,35.436,9.564,52.178c2.029,4.918,3.445,10.135,4.662,15.328c1.174,5.014,0.08,9.777-2.795,14.188
						c-9.074,13.924-21.459,21.908-38.455,21.697c-6.705-0.082-12.936-2.125-18.734-5.342c-9.088-5.043-18.027-10.354-27.105-15.412
						c-9.209-5.133-18.719-9.607-29.539-9.703c-6.305-0.055-12.639,0.213-18.916,0.813c-14.166,1.352-28.354,2.754-42.105,6.672
						c-7.373,2.102-14.721,4.363-21.91,7.008c-3.469,1.275-6.814,3.26-9.762,5.518c-11.424,8.75-21.018,19.234-27.941,31.902
						c-7.592,13.891-10.174,28.959-9.828,44.682c0.332,15.16,3.684,29.768,7.271,44.389c2.93,11.941,5.748,23.936,7.941,36.027
						c2.156,11.893,1.5,23.715-3.291,35.107c-1.152,2.738-1.674,5.816-2.004,8.793c-0.131,1.176,0.707,3.027,1.691,3.672
						c8.703,5.684,17.764,10.512,28.607,10.422c4.477-0.037,8.727-0.953,12.768-2.844c3.082-1.445,3.615-2.652,2.539-5.93
						c-0.521-1.592-1.244-3.117-1.861-4.676c-2.066-5.223,0.357-10.348,5.922-11.027c3.768-0.461,7.939-0.17,11.533,1.004
						c8.414,2.746,16.586,6.234,24.865,9.402c1.848,0.709,3.725,1.342,5.588,2.008c0.211-0.145,0.422-0.289,0.635-0.434
						c-0.52-1.676-0.797-3.48-1.611-4.998c-1.355-2.525-3.025-4.887-4.615-7.283c-2.904-4.373-2.258-7.928,2.16-10.811
						c4.598-3,9.857-3.666,15.164-3.762c7.672-0.137,15.369,0.293,23.018-0.16c4.061-0.242,8.162-1.504,12.025-2.912
						c3.902-1.424,4.033-3.381,0.85-6.016c-2.279-1.887-4.715-3.58-7-5.457c-5.896-4.846-7.211-10.012-4.172-17.049
						c1.008-2.33,2.385-4.527,3.783-6.658c10.406-15.863,18.613-32.793,24.76-50.732c3.191-9.314,3.367-18.982,3.455-28.68
						c0.045-4.951,0.098-9.928,0.633-14.842c0.822-7.523,3.834-10.611,11.184-12.49c5.936-1.514,11.426-0.293,16.623,2.635
						c6.289,3.545,11.607,8.332,16.047,13.922c11.881,14.953,25.686,28.059,38.959,41.703c11.197,11.508,21.453,23.938,32.02,36.053
						c5.045,5.783,10.016,11.65,14.715,17.715c9.982,12.887,17.146,27.234,20.209,43.289c1.262,6.615,1.156,13.506,1.467,20.279
						c0.164,3.588,0.014,7.205-0.227,10.793c-0.324,4.801-3.359,6.791-7.957,5.303c-5.123-1.658-9.197-4.752-12.152-9.279
						c-0.646-0.994-1.275-2-2.545-3.016c-0.561,3.807-1.428,7.6-1.627,11.424c-0.629,12.055-1.373,24.123-1.363,36.186
						c0.01,9.246-5.291,10.361-11.816,7.516c-4.658-2.031-7.996-5.506-10.266-10.014c-1.146-2.279-2.217-4.596-3.348-6.951
						c-2.682,0.203-4.262,1.902-4.945,4.035c-1.479,4.611-3.389,9.299-3.658,14.039c-0.512,8.988-0.41,18.063,0.195,27.051
						c0.857,12.699,1.961,25.367,0.588,38.082c-0.229,2.117-0.604,4.324-1.461,6.246c-1.756,3.934-5.572,5.117-9.414,3.186
						c-3.564-1.791-6.186-4.582-7.756-8.209c-1.395-3.221-2.48-6.574-3.701-9.871c-0.271-0.734-0.539-1.475-0.871-2.383
						c-2.891,1.143-4.943,3.115-6.191,5.604c-3.006,5.99-6.164,11.965-8.436,18.242c-2.986,8.254-5.125,16.809-7.75,25.195
						c-0.809,2.58-1.832,5.129-3.09,7.518c-1.555,2.949-3.727,3.836-7.035,3.195c-5.148-0.994-9.326-3.801-12.795-7.561
						c-1.893-2.051-3.873-2.338-5.912-0.938c-2.402,1.65-4.92,3.406-6.684,5.666c-9.59,12.295-18.959,24.764-28.42,37.16
						c-0.627,0.822-1.336,1.602-2.102,2.297c-2.713,2.465-6.25,2.652-8.473-0.213c-1.842-2.375-3.184-5.334-4.004-8.246
						c-0.855-3.035-1.01-6.316-1.107-9.502c-0.063-2.027-0.959-2.707-2.615-2.291c-4.232,1.061-8.867,1.539-12.529,3.654
						c-10.166,5.869-19.934,12.426-29.822,18.77c-3.094,1.984-5.975,4.311-9.121,6.199c-4.297,2.576-7.428,1.422-9.422-3.133
						c-2.166-4.949-2.615-9.85,0.225-14.725c0.516-0.883,0.9-1.842,1.346-2.764C404.532,691.022,404.427,690.7,404.321,690.377z"
						/>
					</g>
				</svg>