<?xml version="1.0" standalone="no"?>
<!DOCTYPE svg PUBLIC "-//W3C//DTD SVG 20010904//EN"
 "http://www.w3.org/TR/2001/REC-SVG-20010904/DTD/svg10.dtd">
<svg version="1.0" xmlns="http://www.w3.org/2000/svg"
 width="170.000000pt" height="148.000000pt" viewBox="0 0 170.000000 148.000000"
 preserveAspectRatio="xMidYMid meet">

<g transform="translate(0.000000,148.000000) scale(0.100000,-0.100000)"
fill="currentColor" stroke="none">
<path d="M114 1469 c-17 -5 -50 -29 -73 -54 -33 -36 -41 -52 -41 -82 0 -73 62
-133 138 -133 20 0 41 -13 76 -49 l48 -49 -22 -30 c-30 -41 -28 -72 19 -258
50 -201 127 -424 195 -574 29 -63 56 -122 59 -131 9 -26 107 -69 193 -85 192
-34 484 -25 644 22 30 8 75 19 100 23 65 11 186 61 211 87 23 24 19 64 -7 64
-8 0 -14 4 -14 9 0 6 -16 3 -36 -5 -20 -8 -39 -12 -42 -9 -3 3 4 8 16 12 35 9
25 21 -17 19 -22 0 -42 2 -45 5 -3 3 13 64 35 135 39 125 99 362 135 530 21
103 14 147 -32 190 -113 107 -547 161 -947 119 -78 -8 -175 -24 -216 -35 l-75
-19 -68 68 c-64 64 -68 71 -68 113 0 51 -24 89 -70 113 -32 17 -50 17 -96 4z
m110 -41 c35 -31 39 -72 9 -76 -13 -2 -23 -9 -23 -15 0 -15 337 -353 345 -346
3 3 -34 46 -82 94 -92 93 -59 68 65 -49 60 -56 76 -67 95 -61 12 4 51 13 87
21 l65 14 -67 -5 c-37 -3 -75 -8 -85 -12 -11 -4 -14 -3 -9 5 4 7 22 12 41 12
19 0 37 5 40 10 8 12 -17 12 -68 1 -20 -5 -39 -5 -42 0 -3 4 22 11 55 15 33 4
63 11 67 17 6 10 -35 7 -132 -9 -22 -4 -37 -3 -33 1 11 11 134 34 188 35 43 0
98 19 58 20 -10 0 -18 5 -18 10 0 6 -19 11 -42 11 l-43 2 45 8 c76 13 404 11
418 -3 7 -7 42 -13 80 -14 37 -1 69 -3 72 -4 3 -1 28 -3 57 -4 30 0 57 -7 65
-15 11 -11 11 -13 -1 -6 -18 10 -190 15 -196 5 -2 -4 33 -14 78 -23 100 -20
160 -37 154 -43 -2 -2 -33 2 -68 11 -35 8 -80 14 -99 14 -22 0 3 -9 68 -23 56
-12 108 -28 114 -34 16 -16 14 -16 -97 14 -87 23 -120 26 -102 8 9 -9 78 -23
115 -24 35 0 43 -15 14 -24 -52 -17 -321 -36 -501 -36 -159 0 -233 5 -340 21
-75 12 -145 27 -157 33 -28 15 -228 235 -220 243 5 5 84 -75 194 -197 17 -19
32 -30 32 -25 0 6 -63 77 -141 158 l-141 147 31 17 c32 19 40 33 19 33 -7 0
-29 -17 -50 -37 -29 -29 -41 -34 -50 -25 -19 19 73 102 115 102 27 1 29 2 14
11 -22 13 -49 4 -87 -28 -17 -13 -30 -20 -30 -14 0 5 5 13 11 17 8 4 7 10 -1
18 -9 8 -18 4 -36 -19 -13 -16 -27 -38 -30 -47 -6 -19 -24 -25 -24 -8 0 25 33
71 67 95 48 32 102 33 137 3z m-128 -158 c8 8 14 8 19 0 3 -5 0 -10 -9 -10 -8
0 -16 -5 -18 -12 -5 -15 -58 20 -58 39 0 11 6 10 26 -6 20 -15 30 -18 40 -11z
m1240 -74 c248 -42 356 -108 339 -205 -38 -220 -199 -820 -233 -866 -32 -45
-180 -81 -372 -91 -152 -8 -368 14 -355 36 3 5 -9 12 -27 16 l-33 8 30 7 c17
4 50 8 75 9 39 2 34 4 -38 15 -46 7 -103 20 -128 30 -25 9 -47 15 -50 13 -9
-9 39 -59 74 -78 27 -14 32 -19 17 -19 -11 -1 -37 9 -58 22 -35 20 -44 35 -93
151 -30 71 -74 188 -100 260 -55 159 -126 426 -113 426 14 0 25 -32 53 -146
50 -199 174 -556 183 -527 3 7 -3 25 -11 41 -50 96 -194 586 -176 597 10 6 11
3 49 -155 29 -124 117 -395 146 -450 8 -16 15 -39 15 -50 0 -17 4 -20 20 -15
22 7 26 -5 8 -23 -9 -9 -7 -13 8 -18 10 -4 40 -15 67 -26 67 -25 265 -41 444
-35 123 4 153 2 157 -9 4 -10 -3 -14 -20 -14 -16 0 -24 -5 -21 -12 10 -31 197
0 203 33 1 8 5 22 10 33 6 16 3 18 -27 12 -31 -6 -30 -4 16 20 28 15 51 27 53
29 8 7 -12 34 -33 43 l-25 12 21 54 c42 113 149 503 149 543 0 7 -4 13 -10 13
-5 0 -10 -12 -10 -27 -1 -29 -68 -297 -69 -276 -1 7 12 72 29 145 16 73 26
136 22 140 -4 4 -20 -49 -36 -120 -15 -70 -47 -195 -72 -279 -48 -165 -52
-189 -23 -128 10 22 16 29 13 15 -13 -50 -24 -70 -39 -70 -28 0 -16 -18 20
-30 43 -14 44 -24 5 -40 -16 -7 -30 -16 -30 -20 0 -9 -109 -36 -182 -45 -73
-9 -286 -7 -368 5 -127 17 -170 30 -170 50 0 10 -11 42 -24 71 -49 113 -182
584 -167 593 17 10 47 -20 132 -134 110 -149 200 -284 263 -399 56 -101 58
-115 14 -94 -25 13 -37 14 -62 5 -23 -9 -32 -9 -37 0 -6 9 -11 9 -23 -1 -13
-11 -17 -11 -22 3 -3 9 -11 16 -18 16 -6 0 -16 19 -22 42 -24 95 -65 223 -75
233 -7 7 -9 5 -5 -5 2 -8 21 -73 42 -145 34 -121 63 -196 64 -168 0 8 13 6 43
-7 23 -10 76 -24 117 -30 41 -6 92 -14 113 -17 21 -3 62 -1 90 5 198 41 208
44 205 60 -4 24 -46 27 -69 6 -16 -15 -19 -15 -19 -2 0 9 7 22 17 29 50 42 70
174 33 222 -11 14 -89 77 -173 140 -83 63 -174 136 -202 161 l-50 46 110 -6
c260 -15 662 61 731 137 22 24 13 24 -38 -2 -63 -32 -113 -48 -233 -74 -190
-40 -365 -47 -665 -25 -212 16 -334 36 -394 67 -61 31 -66 37 -66 86 0 27 4
37 15 37 18 0 75 -28 75 -36 0 -3 -5 -2 -12 2 -7 4 -8 3 -4 -5 9 -14 72 -46
111 -56 170 -42 606 -58 836 -31 151 17 293 56 308 85 8 14 5 23 -12 38 -52
48 -143 77 -306 97 -261 33 -385 30 -649 -16 l-123 -21 -22 21 c-14 14 -18 25
-12 31 13 13 161 39 286 51 135 13 486 4 595 -14z m-619 -92 c-3 -3 -36 -12
-74 -20 -37 -7 -79 -16 -93 -20 -19 -5 -22 -4 -14 5 6 6 39 18 75 25 69 15
116 20 106 10z m756 -45 c61 -20 92 -38 83 -46 -2 -2 -22 5 -43 15 -21 11 -56
23 -76 27 -21 4 -40 11 -43 16 -8 14 11 11 79 -12z m54 -55 c-3 -3 -12 -4 -19
-1 -8 3 -5 6 6 6 11 1 17 -2 13 -5z m-1083 -225 c17 -88 62 -243 112 -383 27
-76 27 -102 -1 -34 -33 83 -66 184 -105 329 -41 151 -46 179 -32 179 4 0 16
-41 26 -91z m-48 54 c45 -198 109 -401 163 -515 17 -37 31 -71 31 -76 0 -5 10
-16 23 -25 25 -17 15 -37 -10 -21 -33 20 -166 374 -209 551 -28 118 -27 113
-14 113 5 0 12 -12 16 -27z m236 -86 c132 -176 293 -449 286 -484 -2 -11 -24
22 -56 84 -57 111 -201 334 -283 438 -28 36 -45 65 -37 65 7 0 47 -46 90 -103z
m53 93 l90 -11 55 -53 c30 -30 114 -97 185 -150 202 -149 215 -161 215 -203 0
-56 -20 -110 -58 -153 -41 -48 -72 -65 -131 -73 -45 -6 -111 13 -111 31 0 18
77 128 108 154 41 34 42 56 2 28 l-30 -22 -21 46 c-11 25 -24 46 -29 46 -5 0
3 -20 17 -45 13 -25 23 -51 20 -57 -2 -7 -19 17 -38 55 -20 40 -38 66 -46 63
-6 -3 -24 15 -40 40 -15 24 -32 44 -36 44 -10 0 -3 -12 44 -75 40 -54 89 -150
88 -175 0 -8 -17 17 -37 56 -39 74 -200 318 -259 392 -19 23 -42 42 -52 42
-10 0 -24 7 -31 15 -15 18 -19 18 95 5z m18 -128 c106 -139 257 -385 244 -398
-3 -3 -16 14 -28 38 -42 82 -171 283 -225 350 -30 37 -54 70 -54 73 0 13 21
-8 63 -63z m754 -204 c-3 -8 -6 -5 -6 6 -1 11 2 17 5 13 3 -3 4 -12 1 -19z
m-526 -40 c11 -21 11 -22 -4 -9 -10 7 -17 17 -17 22 0 15 9 10 21 -13z m-86
-258 c3 -5 1 -10 -4 -10 -6 0 -11 5 -11 10 0 6 2 10 4 10 3 0 8 -4 11 -10z
m761 -46 c13 5 16 4 9 -3 -16 -16 -85 -42 -85 -32 0 5 12 14 28 19 15 6 21 11
14 11 -7 1 -10 6 -6 12 5 8 9 7 14 -1 5 -8 15 -10 26 -6z m-321 -24 c-3 -5
-16 -10 -28 -9 -21 0 -21 1 -2 9 28 12 37 12 30 0z m230 0 c-3 -5 -13 -10 -21
-10 -8 0 -12 5 -9 10 3 6 13 10 21 10 8 0 12 -4 9 -10z m-205 -14 c0 -3 -4 -8
-10 -11 -5 -3 -10 -1 -10 4 0 6 5 11 10 11 6 0 10 -2 10 -4z m-665 -26 c3 -5
2 -10 -4 -10 -5 0 -13 5 -16 10 -3 6 -2 10 4 10 5 0 13 -4 16 -10z m612 -16
c-3 -3 -12 -4 -19 -1 -8 3 -5 6 6 6 11 1 17 -2 13 -5z"/>
<path d="M241 1223 c46 -49 114 -121 151 -160 37 -40 70 -73 73 -73 3 0 5 7 5
16 0 20 -278 304 -298 304 -9 0 22 -39 69 -87z"/>
<path d="M1195 992 c11 -5 52 -12 90 -15 48 -4 63 -3 47 3 -29 12 -164 24
-137 12z"/>
<path d="M723 983 c-29 -2 -53 -9 -53 -15 0 -7 14 -8 38 -4 20 3 54 6 75 6 20
0 37 5 37 10 0 6 -10 9 -22 8 -13 -1 -47 -3 -75 -5z"/>
<path d="M1198 963 c12 -2 30 -2 40 0 9 3 -1 5 -23 4 -22 0 -30 -2 -17 -4z"/>
<path d="M500 1160 c-13 -9 -13 -10 0 -10 8 0 22 5 30 10 13 9 13 10 0 10 -8
0 -22 -5 -30 -10z"/>
<path d="M572 1158 c-24 -5 -41 -12 -39 -15 6 -6 147 16 147 23 0 7 -63 2
-108 -8z"/>
<path d="M1576 888 c-3 -7 -16 -69 -31 -138 -15 -69 -47 -190 -72 -270 -24
-80 -47 -156 -49 -170 -9 -52 24 33 63 163 20 71 39 124 40 120 2 -5 -15 -71
-37 -147 -22 -76 -39 -141 -36 -143 14 -14 156 522 156 586 0 15 -30 14 -34
-1z"/>
<path d="M1445 824 c-13 -74 -66 -279 -103 -402 -37 -122 -37 -122 -64 -116
-32 6 -39 -11 -8 -19 13 -3 20 -14 20 -28 0 -23 0 -23 13 -4 37 53 176 580
158 598 -6 6 -12 -4 -16 -29z"/>
<path d="M1391 795 c-17 -79 -56 -238 -75 -299 -8 -27 -11 -45 -6 -40 13 13
102 363 97 383 -2 9 -9 -11 -16 -44z"/>
<path d="M1416 807 c-4 -26 -28 -123 -53 -215 -57 -213 -60 -225 -24 -124 34
95 94 346 88 371 -2 9 -7 -6 -11 -32z"/>
<path d="M1355 763 c-9 -43 -28 -120 -42 -171 -13 -52 -22 -96 -19 -99 2 -3
12 21 21 53 9 33 21 73 25 89 21 70 47 205 40 205 -4 0 -16 -35 -25 -77z"/>
<path d="M510 703 c0 -39 113 -408 131 -427 15 -16 11 1 -30 133 -22 69 -49
164 -61 211 -21 85 -40 124 -40 83z"/>
<path d="M677 534 c-12 -12 -8 -40 18 -123 26 -83 35 -92 61 -66 13 12 11 22
-18 77 -18 35 -37 76 -43 91 -6 16 -14 25 -18 21z m59 -130 c8 -18 14 -37 14
-41 0 -10 -49 69 -50 80 0 18 23 -7 36 -39z"/>
<path d="M745 313 c-31 -5 -53 -19 -43 -28 9 -10 138 16 132 26 -5 9 -34 10
-89 2z"/>
<path d="M656 230 c8 -31 24 -50 24 -29 0 8 -7 24 -16 35 -14 18 -15 18 -8 -6z"/>
<path d="M1205 180 c-26 -4 -35 -9 -25 -13 8 -4 35 -1 60 7 48 15 32 18 -35 6z"/>
<path d="M894 98 c-3 -4 28 -8 68 -7 83 1 81 6 -5 12 -32 2 -60 0 -63 -5z"/>
<path d="M735 86 c21 -10 42 -11 70 -6 l40 8 -36 1 c-20 0 -52 3 -70 6 l-34 5
30 -14z"/>
<path d="M1030 580 c19 -17 44 -36 55 -42 18 -10 18 -9 -2 13 -12 13 -37 32
-55 42 l-33 18 35 -31z"/>
<path d="M1128 468 c-27 -9 -38 -28 -18 -28 13 0 70 29 70 35 0 7 -22 5 -52
-7z"/>
<path d="M1202 415 c0 -16 2 -22 5 -12 2 9 2 23 0 30 -3 6 -5 -1 -5 -18z"/>
<path d="M1025 338 c-39 -45 -67 -97 -59 -110 3 -5 29 -8 57 -8 50 0 53 2 72
36 10 19 27 40 37 45 10 6 16 14 13 19 -5 8 -53 -3 -110 -25 -13 -6 -7 5 18
30 20 21 37 42 37 47 0 21 -32 4 -65 -34z m71 -55 c-10 -10 -80 -33 -85 -28
-5 6 59 34 78 35 8 0 11 -3 7 -7z"/>
<path d="M1166 345 c-9 -14 -13 -25 -9 -25 4 0 -6 -13 -22 -30 -16 -16 -25
-33 -21 -37 11 -11 68 56 62 72 -2 7 2 16 10 19 8 3 14 10 14 16 0 18 -17 11
-34 -15z"/>
</g>
</svg>
